#!OML:ASF E:/inclinewalkrobotboard/Project1/Captureday1/Session1/subject1.ASF
:FULLY-SPECIFIED
:DEGREES
326
root 0 0 0 15.559598465798551 42.41802169619815 -0.3976862709169726
lowerback -10.700131143382112 -4.516748028741365 -4.5262557483120585
upperback -11.63706396126707 -5.609640770131577 8.8998525414898
thorax -5.435671150257971 -2.108899471418046 12.155586145730943
lowerneck -3.0018779027922173 -9.81438990885896 -8.436348951272393
upperneck 32.78583491615945 -12.294280377833712 0.10435882374272643
head 11.90300843159237 -6.371619539957487 -0.16764808529198838
rclavicle -4.502036725337639E-15 4.282530018979255E-15
rhumerus 161.70706132859283 6.173505913854278 -194.9284353316867
rradius 16.53717533040936
rwrist 83.38282975814776
rhand -17.123168622084545 7.972962943991973
rfingers 7.125020000000012
rthumb 9.070328940323574 -21.920518685723763
lclavicle 2.1917430860962735E-15 -4.139025362939907E-15
lhumerus 85.09612782570343 32.847205485027814 16.479690773145556
lradius 49.420809285663225
lwrist -17.77112982749827
lhand -8.740710262316519 12.128810027964198
lfingers 7.125019999999985
lthumb 17.153624603904063 41.11031890698427
rfemur 156.72711607060882 -212.413393812229 -184.5945680697227
rtibia 60.432889480598945
rfoot -58.66852240689431 -22.339921652492908
rtoes 60.778791358578886
lfemur -88.85164993827374 22.74366251678459 -52.67588296541364
ltibia 75.58837059765733
lfoot -13.285918429163111 32.73243455154482
ltoes 9.571314140678254
327
root 0 0 0 15.528530910584696 42.427879202432464 -0.38043605915141043
lowerback -10.685821428042987 -4.517738579441788 -4.529533766448458
upperback -11.629793399668845 -5.610629746603695 8.897301518218653
thorax -5.436568012324627 -2.1086907273741957 12.154414620698631
lowerneck -3.002132472691642 -9.813630270272686 -8.433976495857744
upperneck 32.7857969323205 -12.292315200372139 0.10038240570837376
head 11.902694585047815 -6.371023263155871 -0.16911038872092576
rclavicle -4.4946274071220854E-15 4.3087833972932155E-15
rhumerus 161.62969974854687 6.205133216113843 -194.99044698354388
rradius 16.50461997219682
rwrist 83.42181368407924
rhand -17.123589422134863 7.97958680107517
rfingers 7.125020000000012
rthumb 9.069875353830868 -21.913180019738938
lclavicle 2.2377655650444453E-15 -4.079268670345226E-15
lhumerus 85.08710291314591 32.863444636603205 16.4752077282434
lradius 49.34712254885061
lwrist -17.8033647546403
lhand -8.784759140567028 12.159938377979584
lfingers 7.125019999999985
lthumb 17.1112640652598 41.148699994900824
rfemur 156.65649246668625 -212.34595650011613 -184.5475699795894
rtibia 60.26275768546276
rfoot -59.043190270769664 -22.189121407269226
rtoes 60.75306865585743
lfemur -88.86678190547724 22.740967066413166 -52.727094422438654
ltibia 75.57274013878778
lfoot -13.083201176922174 32.73022374078657
ltoes 9.502590308465173
328
root 0 0 0 15.495930240030209 42.43769822634803 -0.36227021385937697
lowerback -10.670786671175275 -4.5187478400796355 -4.532997343605802
upperback -11.622137600060483 -5.611626600549312 8.89455941159706
thorax -5.437504278370337 -2.1084464760043957 12.15312615138609
lowerneck -3.002463696159486 -9.812800953657758 -8.431427996936177
upperneck 32.785763611749275 -12.290223727453482 0.09620501614605015
head 11.902373629619685 -6.370379069125705 -0.17064782627329111
rclavicle -4.48622302773197E-15 4.336123940402057E-15
rhumerus 161.54926900310292 6.237430935957086 -195.05501887480696
rradius 16.469906569117953
rwrist 83.46386253867868
rhand -17.124004322790174 7.986311956083029
rfingers 7.125020000000012
rthumb 9.069420032663409 -21.905739530343688
lclavicle 2.2866374816926885E-15 -4.01601998742592E-15
lhumerus 85.0788242407284 32.881052433094894 16.470007461083295
lradius 49.26731970621532
lwrist -17.83783864374876
lhand -8.832070560880815 12.193696446936762
lfingers 7.125019999999984
lthumb 17.06576492639238 41.19024956192581
rfemur 156.58100404797588 -212.27303596174062 -184.49763828556402
rtibia 60.07844180594057
rfoot -59.445418954595446 -22.027416796467477
rtoes 60.726453855133144
lfemur -88.88237594937142 22.738391734330392 -52.779051734200436
ltibia 75.55689987003689
lfoot -12.874140053094338 32.72747859557292
ltoes 9.43167268149817
329
root 0 0 0 15.461349440999603 42.4475441501441 -0.34292704699784693
lowerback -10.654818407408658 -4.51978588494879 -4.536699952279441
upperback -11.613988105324832 -5.612639856988296 8.891579307676835
thorax -5.43849218005921 -2.1081598604521465 12.151696143578214
lowerneck -3.0028837168189604 -9.811885286693363 -8.42865876847451
upperneck 32.785739180981025 -12.287972030630515 0.0917666651848803
head 11.902043341384818 -6.369675064145519 -0.17228257164935123
rclavicle -4.476679119490324E-15 4.3648574365113874E-15
rhumerus 161.46482699561278 6.2706954926174205 -195.12287893400784
rradius 16.43251963653113
rwrist 83.5096814283891
rhand -17.124413030852324 7.993194465549316
rfingers 7.125020000000012
rthumb 9.068961873630744 -21.898136188502086
lclavicle 2.3390394108332883E-15 -3.9484032925685944E-15
lhumerus 85.07127994527065 32.9003249430366 16.46392011002125
lradius 49.17995332556789
lwrist -17.87513463706171
lhand -8.883470999882881 12.23068465291216
lfingers 7.125019999999984
lthumb 17.016332011051823 41.235701664935775
rfemur 156.49948584940398 -212.19335785874037 -184.44402119654455
rtibia 59.87676958444662
rfoot -59.88144768758691 -21.85228419692095
rtoes 60.69866155729444
lfemur -88.89858073158236 22.73591713557143 -52.832256206618474
ltibia 75.54069999124562
lfoot -12.656432967929579 32.72412128354548
ltoes 9.357755261198442
330
root 0 0 0 15.424252067540452 42.457464979094354 -0.32208835484357046
lowerback -10.637668034773565 -4.5208644955465935 -4.540708110022912
upperback -11.605214899092221 -5.6136794954219535 8.88830271326253
thorax -5.439546273168062 -2.107822259682898 12.15009410345435
lowerneck -3.003409576182798 -9.810861692023664 -8.42561366993944
upperneck 32.785727754003375 -12.285518208746327 0.08699793106317966
head 11.901700997629954 -6.368896083309143 -0.1740403967705817
rclavicle -4.46581260227662E-15 4.395345635985095E-15
rhumerus 161.37526995019368 6.305277797889648 -195.1948999729769
rradius 16.391856693977218
rwrist 83.56007443890888
rhand -17.124812972311858 8.00029974838155
rfingers 7.125020000000012
rthumb 9.068501797830669 -21.890298233990404
lclavicle 2.3957945183698744E-15 -3.87537408657088E-15
lhumerus 85.06444098031488 32.92161829668245 16.45673434292535
lradius 49.08325736480248
lwrist -17.91595617062547
lhand -8.939952722634636 12.271637407184453
lfingers 7.125019999999984
lthumb 16.96201050579173 41.28595121958197
rfemur 156.41060281372035 -212.10542332484164 -184.3858442028586
rtibia 59.65391000501713
rfoot -60.358754968623764 -21.660655076177868
rtoes 60.66930405569603
lfemur -88.9155652070985 22.733521495984007 -52.887284131195294
ltibia 75.52396066880932
lfoot -12.427392312919014 32.72005838488475
ltoes 9.279895468565847
